<?xml version="1.0" standalone="no"?>
<!DOCTYPE svg PUBLIC "-//W3C//DTD SVG 20010904//EN"
 "http://www.w3.org/TR/2001/REC-SVG-20010904/DTD/svg10.dtd">
<svg version="1.0" xmlns="http://www.w3.org/2000/svg"
 width="640.000000pt" height="640.000000pt" viewBox="0 0 640.000000 640.000000"
 preserveAspectRatio="xMidYMid meet">
<metadata>
Created by potrace 1.11, written by Peter Selinger 2001-2013
</metadata>
<g transform="translate(0.000000,640.000000) scale(0.100000,-0.100000)"
fill="#000000" stroke="none">
<path d="M2465 6091 c-16 -10 -138 -124 -270 -252 l-240 -234 -330 -64 c-181
-35 -342 -70 -357 -77 -15 -8 -35 -29 -44 -47 -10 -17 -63 -171 -118 -342
l-102 -310 -269 -217 c-148 -119 -275 -227 -282 -240 -20 -37 -16 -87 41 -423
l55 -320 -140 -322 c-76 -177 -139 -333 -139 -348 0 -14 5 -35 10 -46 6 -10
104 -142 219 -292 l207 -272 24 -335 c21 -287 27 -341 45 -374 19 -38 32 -45
330 -183 171 -79 316 -149 322 -156 7 -7 93 -140 190 -297 136 -217 186 -288
211 -303 33 -20 39 -20 382 -4 l348 17 308 -180 c217 -127 317 -180 339 -180
22 0 122 53 339 180 l308 180 348 -17 c343 -16 349 -16 382 4 25 15 75 86 211
303 97 157 183 290 190 297 6 7 152 77 322 156 298 138 311 145 330 183 18 33
24 87 45 374 l24 335 207 272 c115 150 213 282 219 292 5 11 10 32 10 46 0 15
-63 171 -139 348 l-140 322 55 320 c57 336 61 386 41 423 -7 13 -134 121 -282
240 l-269 217 -102 310 c-55 171 -108 325 -118 342 -9 18 -29 39 -44 47 -15 7
-175 42 -357 77 l-330 64 -240 234 c-249 242 -283 271 -324 271 -14 0 -171
-43 -350 -97 -179 -53 -330 -96 -336 -96 -5 0 -157 43 -336 96 -179 54 -336
97 -350 97 -13 0 -37 -9 -54 -19z"/>
</g>
</svg>
