<svg xmlns="http://www.w3.org/2000/svg" width="329.674" height="327.271" viewBox="0 0 329.674 327.271"><path id="text" fill="#252526" class="tglogo" d="M99.097 272.944V85.782H66.333V60.44h87.644v25.34l-32.764.002v187.162M200.654 272.944c-9.874 0-17.365-2.805-22.265-8.336-5.083-5.736-7.66-14.547-7.66-26.19V94.965c0-11.643 2.577-20.453 7.66-26.19 4.898-5.53 12.39-8.334 22.264-8.334h32.764c19.855 0 29.924 11.615 29.924 34.524v27.802h-21.125V102.81c0-10.503-6.033-17.027-15.748-17.027h-17.872c-9.86 0-15.75 6.365-15.75 17.027v127.763c0 10.663 5.89 17.028 15.75 17.028h17.87c9.862 0 15.75-6.364 15.75-17.027V187.21h-16.88v-25.345h38.004v76.555c0 22.91-10.068 34.525-29.924 34.525h-32.764z"/><path id="roundel" fill="#252526" class="tglogo" d="M313.19 143.21l6.905-40.87-32.27-26.01-12.88-39.397-40.66-8.035L204.576 0l-39.738 11.78L125.1 0 95.386 28.897l-40.66 8.035-12.88 39.4-32.27 26.008 6.906 40.87L0 181.24l25.105 32.975 3.075 41.334 37.558 17.532L87.67 308.25l41.403-1.927 35.764 20.948 35.765-20.947 41.402 1.927 21.932-35.168 37.557-17.533 3.077-41.335 25.104-32.976-16.483-38.03zm-44.028 95.21c0 26.336-12.66 40.345-35.744 40.345h-32.764c-8.33 0-15.26-1.795-20.736-5.29l-15.08 8.835-25.938-15.193-11.867.552v6.612c0 3.08-1.24 4.482-3.972 4.482H97.25c-2.482 0-3.972-1.4-3.972-4.482v-30.777l-.31-.495-27.237-12.716-2.23-29.977-18.208-23.914 11.954-27.58-5.008-29.642 23.403-18.86 2.85-8.718H64.483c-2.482 0-3.972-1.682-3.972-4.483V59.1c0-2.8 1.49-4.48 3.973-4.48h61.604l9.93-9.657 28.82 8.543 28.818-8.543 9.93 9.656h29.832c23.085 0 35.744 14.008 35.744 40.345v17.55l8.274 6.668-5.008 29.64 11.955 27.582-15.22 19.992v42.022z"/></svg>
